<mxfile host="app.diagrams.net" agent="Mozilla/5.0 (Macintosh; Intel Mac OS X 10_15_7) AppleWebKit/537.36 (KHTML, like Gecko) Chrome/129.0.0.0 Safari/537.36" version="24.7.17">
  <diagram name="第 1 页" id="U5tVGrgGdMVLEEQeWUJi">
    <mxGraphModel dx="2402" dy="1308" grid="1" gridSize="10" guides="1" tooltips="1" connect="1" arrows="1" fold="1" page="1" pageScale="1" pageWidth="827" pageHeight="1169" background="#000000" math="0" shadow="0">
      <root>
        <mxCell id="0" />
        <mxCell id="1" parent="0" />
        <mxCell id="U49meoOqf-jPetuzmlHi-1" value="&lt;font style=&quot;font-size: 25px;&quot;&gt;Driver A&lt;/font&gt;" style="rounded=0;whiteSpace=wrap;html=1;fontColor=#FEFAE0;labelBackgroundColor=none;labelBorderColor=none;fillColor=#BC6C25;strokeColor=#DDA15E;" vertex="1" parent="1">
          <mxGeometry x="50" y="50" width="130" height="80" as="geometry" />
        </mxCell>
        <mxCell id="U49meoOqf-jPetuzmlHi-2" value="&lt;font style=&quot;font-size: 25px;&quot;&gt;Driver B&lt;/font&gt;" style="rounded=0;whiteSpace=wrap;html=1;fontColor=#FEFAE0;labelBackgroundColor=none;labelBorderColor=none;fillColor=#BC6C25;strokeColor=#DDA15E;" vertex="1" parent="1">
          <mxGeometry x="240" y="50" width="130" height="80" as="geometry" />
        </mxCell>
        <mxCell id="U49meoOqf-jPetuzmlHi-3" value="&lt;font style=&quot;font-size: 25px;&quot;&gt;Restaurant A&lt;/font&gt;" style="rounded=0;whiteSpace=wrap;html=1;fontColor=#FEFAE0;labelBackgroundColor=none;labelBorderColor=none;fillColor=#BC6C25;strokeColor=#DDA15E;" vertex="1" parent="1">
          <mxGeometry x="430" y="50" width="130" height="80" as="geometry" />
        </mxCell>
        <mxCell id="U49meoOqf-jPetuzmlHi-4" value="&lt;font style=&quot;font-size: 25px;&quot;&gt;Restaurant B&lt;/font&gt;" style="rounded=0;whiteSpace=wrap;html=1;fontColor=#FEFAE0;labelBackgroundColor=none;labelBorderColor=none;fillColor=#BC6C25;strokeColor=#DDA15E;" vertex="1" parent="1">
          <mxGeometry x="620" y="50" width="130" height="80" as="geometry" />
        </mxCell>
        <mxCell id="U49meoOqf-jPetuzmlHi-6" value="&lt;font style=&quot;font-size: 25px;&quot;&gt;Our System&lt;/font&gt;" style="rounded=0;whiteSpace=wrap;html=1;fontColor=#FEFAE0;labelBackgroundColor=none;labelBorderColor=none;fillColor=#BC6C25;strokeColor=#DDA15E;" vertex="1" parent="1">
          <mxGeometry x="80" y="310" width="680" height="130" as="geometry" />
        </mxCell>
        <mxCell id="U49meoOqf-jPetuzmlHi-7" value="" style="text;whiteSpace=wrap;html=1;fontColor=#FEFAE0;labelBackgroundColor=none;labelBorderColor=none;" vertex="1" parent="1">
          <mxGeometry x="680" y="110" width="60" height="50" as="geometry" />
        </mxCell>
        <mxCell id="U49meoOqf-jPetuzmlHi-8" value="" style="text;whiteSpace=wrap;html=1;fontColor=#FEFAE0;labelBackgroundColor=none;labelBorderColor=none;" vertex="1" parent="1">
          <mxGeometry x="160" y="90" width="60" height="50" as="geometry" />
        </mxCell>
        <mxCell id="U49meoOqf-jPetuzmlHi-10" value="" style="endArrow=classic;html=1;rounded=0;exitX=0.5;exitY=1;exitDx=0;exitDy=0;entryX=0.164;entryY=-0.023;entryDx=0;entryDy=0;entryPerimeter=0;fontColor=default;labelBackgroundColor=none;labelBorderColor=none;strokeColor=#DDA15E;" edge="1" parent="1" source="U49meoOqf-jPetuzmlHi-1" target="U49meoOqf-jPetuzmlHi-6">
          <mxGeometry width="50" height="50" relative="1" as="geometry">
            <mxPoint x="390" y="540" as="sourcePoint" />
            <mxPoint x="180" y="290" as="targetPoint" />
          </mxGeometry>
        </mxCell>
        <mxCell id="U49meoOqf-jPetuzmlHi-17" value="Register" style="edgeLabel;html=1;align=center;verticalAlign=middle;resizable=0;points=[];fontSize=20;fontColor=#FEFAE0;labelBackgroundColor=none;labelBorderColor=none;" vertex="1" connectable="0" parent="U49meoOqf-jPetuzmlHi-10">
          <mxGeometry x="0.1249" y="-2" relative="1" as="geometry">
            <mxPoint x="176" y="-20" as="offset" />
          </mxGeometry>
        </mxCell>
        <mxCell id="U49meoOqf-jPetuzmlHi-18" value="Register" style="edgeLabel;html=1;align=center;verticalAlign=middle;resizable=0;points=[];fontSize=20;fontColor=#FEFAE0;labelBackgroundColor=none;labelBorderColor=none;" vertex="1" connectable="0" parent="U49meoOqf-jPetuzmlHi-10">
          <mxGeometry x="0.1249" y="-2" relative="1" as="geometry">
            <mxPoint x="-14" y="-20" as="offset" />
          </mxGeometry>
        </mxCell>
        <mxCell id="U49meoOqf-jPetuzmlHi-11" value="" style="endArrow=classic;html=1;rounded=0;exitX=0.5;exitY=1;exitDx=0;exitDy=0;fontColor=default;labelBackgroundColor=none;labelBorderColor=none;strokeColor=#DDA15E;" edge="1" parent="1">
          <mxGeometry width="50" height="50" relative="1" as="geometry">
            <mxPoint x="300" y="130" as="sourcePoint" />
            <mxPoint x="340" y="300" as="targetPoint" />
          </mxGeometry>
        </mxCell>
        <mxCell id="U49meoOqf-jPetuzmlHi-12" value="" style="endArrow=classic;html=1;rounded=0;exitX=0.623;exitY=1.05;exitDx=0;exitDy=0;exitPerimeter=0;fontColor=default;labelBackgroundColor=none;labelBorderColor=none;strokeColor=#DDA15E;" edge="1" parent="1" source="U49meoOqf-jPetuzmlHi-3">
          <mxGeometry width="50" height="50" relative="1" as="geometry">
            <mxPoint x="480" y="130" as="sourcePoint" />
            <mxPoint x="480" y="300" as="targetPoint" />
          </mxGeometry>
        </mxCell>
        <mxCell id="U49meoOqf-jPetuzmlHi-13" value="" style="endArrow=classic;html=1;rounded=0;exitX=0.623;exitY=1.05;exitDx=0;exitDy=0;exitPerimeter=0;fontColor=default;labelBackgroundColor=none;labelBorderColor=none;strokeColor=#DDA15E;" edge="1" parent="1">
          <mxGeometry width="50" height="50" relative="1" as="geometry">
            <mxPoint x="661" y="130" as="sourcePoint" />
            <mxPoint x="630" y="296" as="targetPoint" />
          </mxGeometry>
        </mxCell>
        <mxCell id="U49meoOqf-jPetuzmlHi-51" style="edgeStyle=orthogonalEdgeStyle;rounded=0;orthogonalLoop=1;jettySize=auto;html=1;entryX=0.5;entryY=0;entryDx=0;entryDy=0;fontColor=default;labelBackgroundColor=none;labelBorderColor=none;strokeColor=#DDA15E;" edge="1" parent="1" source="U49meoOqf-jPetuzmlHi-23" target="U49meoOqf-jPetuzmlHi-34">
          <mxGeometry relative="1" as="geometry" />
        </mxCell>
        <mxCell id="U49meoOqf-jPetuzmlHi-23" value="&lt;font style=&quot;font-size: 25px;&quot;&gt;Driver System&lt;/font&gt;" style="rounded=0;whiteSpace=wrap;html=1;fontColor=#FEFAE0;labelBackgroundColor=none;labelBorderColor=none;fillColor=#BC6C25;strokeColor=#DDA15E;" vertex="1" parent="1">
          <mxGeometry x="100" y="520" width="130" height="80" as="geometry" />
        </mxCell>
        <mxCell id="U49meoOqf-jPetuzmlHi-24" value="&lt;font style=&quot;font-size: 25px;&quot;&gt;Restaurant&lt;/font&gt;&lt;div&gt;&lt;font style=&quot;font-size: 25px;&quot;&gt;System&lt;/font&gt;&lt;/div&gt;" style="rounded=0;whiteSpace=wrap;html=1;fontColor=#FEFAE0;labelBackgroundColor=none;labelBorderColor=none;fillColor=#BC6C25;strokeColor=#DDA15E;" vertex="1" parent="1">
          <mxGeometry x="590" y="520" width="130" height="80" as="geometry" />
        </mxCell>
        <mxCell id="U49meoOqf-jPetuzmlHi-25" value="&lt;font style=&quot;font-size: 20px;&quot;&gt;Driver&lt;/font&gt;" style="edgeLabel;html=1;align=center;verticalAlign=middle;resizable=0;points=[];fontColor=#FEFAE0;labelBackgroundColor=none;labelBorderColor=none;" vertex="1" connectable="0" parent="1">
          <mxGeometry x="114.99981100507733" y="489.998650765808" as="geometry">
            <mxPoint x="-5" y="-7" as="offset" />
          </mxGeometry>
        </mxCell>
        <mxCell id="U49meoOqf-jPetuzmlHi-26" value="" style="endArrow=classic;html=1;rounded=0;entryX=0.5;entryY=0;entryDx=0;entryDy=0;exitX=0.128;exitY=1.028;exitDx=0;exitDy=0;exitPerimeter=0;fontColor=default;labelBackgroundColor=none;labelBorderColor=none;strokeColor=#DDA15E;" edge="1" parent="1" source="U49meoOqf-jPetuzmlHi-6" target="U49meoOqf-jPetuzmlHi-23">
          <mxGeometry width="50" height="50" relative="1" as="geometry">
            <mxPoint x="180" y="490" as="sourcePoint" />
            <mxPoint x="270" y="450" as="targetPoint" />
          </mxGeometry>
        </mxCell>
        <mxCell id="U49meoOqf-jPetuzmlHi-20" value="&lt;span style=&quot;font-family: Helvetica; font-style: normal; font-variant-ligatures: normal; font-variant-caps: normal; font-weight: 400; letter-spacing: normal; orphans: 2; text-align: center; text-indent: 0px; text-transform: none; widows: 2; word-spacing: 0px; -webkit-text-stroke-width: 0px; white-space: nowrap; text-decoration-thickness: initial; text-decoration-style: initial; text-decoration-color: initial; float: none; display: inline !important;&quot;&gt;&lt;font style=&quot;font-size: 20px;&quot;&gt;Register&lt;/font&gt;&lt;/span&gt;" style="text;whiteSpace=wrap;html=1;fontColor=#FEFAE0;labelBackgroundColor=none;labelBorderColor=none;" vertex="1" parent="1">
          <mxGeometry x="470" y="190" width="70" height="40" as="geometry" />
        </mxCell>
        <mxCell id="U49meoOqf-jPetuzmlHi-21" value="&lt;span style=&quot;font-family: Helvetica; font-size: 20px; font-style: normal; font-variant-ligatures: normal; font-variant-caps: normal; font-weight: 400; letter-spacing: normal; orphans: 2; text-align: center; text-indent: 0px; text-transform: none; widows: 2; word-spacing: 0px; -webkit-text-stroke-width: 0px; white-space: nowrap; text-decoration-thickness: initial; text-decoration-style: initial; text-decoration-color: initial; float: none; display: inline !important;&quot;&gt;Register&lt;/span&gt;" style="text;whiteSpace=wrap;html=1;fontSize=20;fontColor=#FEFAE0;labelBackgroundColor=none;labelBorderColor=none;" vertex="1" parent="1">
          <mxGeometry x="630" y="190" width="70" height="40" as="geometry" />
        </mxCell>
        <mxCell id="U49meoOqf-jPetuzmlHi-27" value="" style="text;whiteSpace=wrap;html=1;fontColor=#FEFAE0;labelBackgroundColor=none;labelBorderColor=none;" vertex="1" parent="1">
          <mxGeometry x="700" y="200" width="60" height="50" as="geometry" />
        </mxCell>
        <mxCell id="U49meoOqf-jPetuzmlHi-28" value="" style="endArrow=classic;html=1;rounded=0;entryX=0.385;entryY=0;entryDx=0;entryDy=0;entryPerimeter=0;exitX=0.787;exitY=1.012;exitDx=0;exitDy=0;exitPerimeter=0;fontColor=default;labelBackgroundColor=none;labelBorderColor=none;strokeColor=#DDA15E;" edge="1" parent="1" source="U49meoOqf-jPetuzmlHi-6" target="U49meoOqf-jPetuzmlHi-24">
          <mxGeometry width="50" height="50" relative="1" as="geometry">
            <mxPoint x="559.5" y="440" as="sourcePoint" />
            <mxPoint x="590.5" y="518" as="targetPoint" />
          </mxGeometry>
        </mxCell>
        <mxCell id="U49meoOqf-jPetuzmlHi-29" value="&lt;font style=&quot;font-size: 20px;&quot;&gt;Restaurant&lt;/font&gt;" style="edgeLabel;html=1;align=center;verticalAlign=middle;resizable=0;points=[];fontColor=#FEFAE0;labelBackgroundColor=none;labelBorderColor=none;" vertex="1" connectable="0" parent="1">
          <mxGeometry x="664.9998110050774" y="489.998650765808" as="geometry">
            <mxPoint x="32" y="-7" as="offset" />
          </mxGeometry>
        </mxCell>
        <mxCell id="U49meoOqf-jPetuzmlHi-35" style="edgeStyle=orthogonalEdgeStyle;rounded=0;orthogonalLoop=1;jettySize=auto;html=1;entryX=1;entryY=0.5;entryDx=0;entryDy=0;fontColor=default;labelBackgroundColor=none;labelBorderColor=none;strokeColor=#DDA15E;" edge="1" parent="1" source="U49meoOqf-jPetuzmlHi-30" target="U49meoOqf-jPetuzmlHi-24">
          <mxGeometry relative="1" as="geometry" />
        </mxCell>
        <mxCell id="U49meoOqf-jPetuzmlHi-30" value="&lt;span style=&quot;font-size: 25px;&quot;&gt;Customer&lt;/span&gt;&lt;div&gt;&lt;span style=&quot;font-size: 25px;&quot;&gt;A&lt;/span&gt;&lt;/div&gt;" style="rounded=0;whiteSpace=wrap;html=1;labelBackgroundColor=none;labelBorderColor=none;fontColor=#FEFAE0;fillColor=#BC6C25;strokeColor=#DDA15E;" vertex="1" parent="1">
          <mxGeometry x="680" y="1070" width="130" height="70" as="geometry" />
        </mxCell>
        <mxCell id="U49meoOqf-jPetuzmlHi-33" value="&lt;span style=&quot;font-size: 25px;&quot;&gt;Driver&lt;/span&gt;&lt;div&gt;&lt;span style=&quot;font-size: 25px;&quot;&gt;A&lt;/span&gt;&lt;/div&gt;" style="rounded=0;whiteSpace=wrap;html=1;fontColor=#FEFAE0;labelBackgroundColor=none;labelBorderColor=none;fillColor=#BC6C25;strokeColor=#DDA15E;" vertex="1" parent="1">
          <mxGeometry x="100" y="1080" width="130" height="70" as="geometry" />
        </mxCell>
        <mxCell id="U49meoOqf-jPetuzmlHi-52" style="edgeStyle=orthogonalEdgeStyle;rounded=0;orthogonalLoop=1;jettySize=auto;html=1;entryX=1;entryY=0.25;entryDx=0;entryDy=0;fontColor=default;labelBackgroundColor=none;labelBorderColor=none;strokeColor=#DDA15E;" edge="1" parent="1" source="U49meoOqf-jPetuzmlHi-34" target="U49meoOqf-jPetuzmlHi-33">
          <mxGeometry relative="1" as="geometry">
            <mxPoint x="435" y="1080" as="targetPoint" />
          </mxGeometry>
        </mxCell>
        <mxCell id="U49meoOqf-jPetuzmlHi-34" value="&lt;font style=&quot;font-size: 25px;&quot;&gt;Restaurant A&lt;/font&gt;" style="rounded=0;whiteSpace=wrap;html=1;fontColor=#FEFAE0;labelBackgroundColor=none;labelBorderColor=none;fillColor=#BC6C25;strokeColor=#DDA15E;" vertex="1" parent="1">
          <mxGeometry x="370" y="740" width="130" height="80" as="geometry" />
        </mxCell>
        <mxCell id="U49meoOqf-jPetuzmlHi-36" style="edgeStyle=orthogonalEdgeStyle;rounded=0;orthogonalLoop=1;jettySize=auto;html=1;entryX=1;entryY=0.625;entryDx=0;entryDy=0;entryPerimeter=0;fontColor=default;labelBackgroundColor=none;labelBorderColor=none;strokeColor=#DDA15E;" edge="1" parent="1" source="U49meoOqf-jPetuzmlHi-24" target="U49meoOqf-jPetuzmlHi-34">
          <mxGeometry relative="1" as="geometry" />
        </mxCell>
        <mxCell id="U49meoOqf-jPetuzmlHi-38" style="edgeStyle=orthogonalEdgeStyle;rounded=0;orthogonalLoop=1;jettySize=auto;html=1;entryX=-0.003;entryY=0.676;entryDx=0;entryDy=0;entryPerimeter=0;fontColor=default;labelBackgroundColor=none;labelBorderColor=none;strokeColor=#DDA15E;" edge="1" parent="1" source="U49meoOqf-jPetuzmlHi-33" target="U49meoOqf-jPetuzmlHi-30">
          <mxGeometry relative="1" as="geometry" />
        </mxCell>
        <mxCell id="U49meoOqf-jPetuzmlHi-40" value="&lt;font style=&quot;font-size: 20px;&quot;&gt;Place the order&lt;/font&gt;" style="edgeLabel;html=1;align=center;verticalAlign=middle;resizable=0;points=[];fontColor=#FEFAE0;labelBackgroundColor=none;labelBorderColor=none;" vertex="1" connectable="0" parent="1">
          <mxGeometry x="739.9998110050774" y="639.998650765808" as="geometry">
            <mxPoint x="-5" y="-7" as="offset" />
          </mxGeometry>
        </mxCell>
        <mxCell id="U49meoOqf-jPetuzmlHi-41" value="&lt;font style=&quot;font-size: 20px;&quot;&gt;Prepare the food&lt;/font&gt;" style="edgeLabel;html=1;align=center;verticalAlign=middle;resizable=0;points=[];fontColor=#FEFAE0;labelBackgroundColor=none;labelBorderColor=none;" vertex="1" connectable="0" parent="1">
          <mxGeometry x="589.9998110050774" y="809.998650765808" as="geometry">
            <mxPoint x="-5" y="-7" as="offset" />
          </mxGeometry>
        </mxCell>
        <mxCell id="U49meoOqf-jPetuzmlHi-42" value="&lt;font style=&quot;font-size: 20px;&quot;&gt;Take the food&lt;/font&gt;" style="edgeLabel;html=1;align=center;verticalAlign=middle;resizable=0;points=[];fontColor=#FEFAE0;labelBackgroundColor=none;labelBorderColor=none;" vertex="1" connectable="0" parent="1">
          <mxGeometry x="639.9998110050774" y="979.998650765808" as="geometry">
            <mxPoint x="-335" y="86" as="offset" />
          </mxGeometry>
        </mxCell>
        <mxCell id="U49meoOqf-jPetuzmlHi-43" value="&lt;span style=&quot;font-size: 20px;&quot;&gt;Food is delivered&lt;/span&gt;" style="edgeLabel;html=1;align=center;verticalAlign=middle;resizable=0;points=[];labelBackgroundColor=none;labelBorderColor=none;fontColor=#FEFAE0;" vertex="1" connectable="0" parent="1">
          <mxGeometry x="909.9998110050774" y="1059.998650765808" as="geometry">
            <mxPoint x="-335" y="86" as="offset" />
          </mxGeometry>
        </mxCell>
        <mxCell id="U49meoOqf-jPetuzmlHi-47" value="" style="endArrow=classic;html=1;rounded=0;entryX=0.692;entryY=1;entryDx=0;entryDy=0;entryPerimeter=0;fontColor=default;labelBackgroundColor=none;labelBorderColor=none;strokeColor=#DDA15E;" edge="1" parent="1" target="U49meoOqf-jPetuzmlHi-23">
          <mxGeometry width="50" height="50" relative="1" as="geometry">
            <mxPoint x="190" y="1070" as="sourcePoint" />
            <mxPoint x="210" y="610" as="targetPoint" />
          </mxGeometry>
        </mxCell>
        <mxCell id="U49meoOqf-jPetuzmlHi-48" value="" style="endArrow=classic;html=1;rounded=0;exitX=0.382;exitY=1.027;exitDx=0;exitDy=0;exitPerimeter=0;fontColor=default;labelBackgroundColor=none;labelBorderColor=none;strokeColor=#DDA15E;" edge="1" parent="1" source="U49meoOqf-jPetuzmlHi-23">
          <mxGeometry width="50" height="50" relative="1" as="geometry">
            <mxPoint x="150" y="620" as="sourcePoint" />
            <mxPoint x="150" y="1070" as="targetPoint" />
          </mxGeometry>
        </mxCell>
        <mxCell id="U49meoOqf-jPetuzmlHi-49" value="&lt;font style=&quot;font-size: 20px;&quot;&gt;Request and Get&amp;nbsp;&lt;/font&gt;&lt;div&gt;&lt;font style=&quot;font-size: 20px;&quot;&gt;CustomerA delivery order&lt;/font&gt;&lt;/div&gt;" style="edgeLabel;html=1;align=center;verticalAlign=middle;resizable=0;points=[];fontColor=#FEFAE0;labelBackgroundColor=none;labelBorderColor=none;" vertex="1" connectable="0" parent="1">
          <mxGeometry x="504.9998110050774" y="759.998650765808" as="geometry">
            <mxPoint x="-335" y="86" as="offset" />
          </mxGeometry>
        </mxCell>
        <mxCell id="U49meoOqf-jPetuzmlHi-50" value="&lt;div style=&quot;text-align: center;&quot;&gt;&lt;div&gt;&lt;span style=&quot;font-size: 20px; text-wrap: nowrap;&quot;&gt;Notify this order&amp;nbsp;&lt;/span&gt;&lt;/div&gt;&lt;div&gt;&lt;span style=&quot;font-size: 20px; text-wrap: nowrap;&quot;&gt;will be delivered by DriverA&lt;/span&gt;&lt;/div&gt;&lt;/div&gt;" style="text;whiteSpace=wrap;html=1;fontColor=#FEFAE0;labelBackgroundColor=none;labelBorderColor=none;" vertex="1" parent="1">
          <mxGeometry x="240" y="660" width="260" height="70" as="geometry" />
        </mxCell>
        <mxCell id="U49meoOqf-jPetuzmlHi-53" value="" style="endArrow=classic;html=1;rounded=0;entryX=-0.005;entryY=0.41;entryDx=0;entryDy=0;entryPerimeter=0;fontColor=default;labelBackgroundColor=none;labelBorderColor=none;strokeColor=#DDA15E;" edge="1" parent="1" target="U49meoOqf-jPetuzmlHi-54">
          <mxGeometry width="50" height="50" relative="1" as="geometry">
            <mxPoint x="300" y="923" as="sourcePoint" />
            <mxPoint x="400" y="940" as="targetPoint" />
          </mxGeometry>
        </mxCell>
        <mxCell id="U49meoOqf-jPetuzmlHi-54" value="&lt;font style=&quot;font-size: 25px;&quot;&gt;Server&lt;/font&gt;" style="rounded=0;whiteSpace=wrap;html=1;fontColor=#FEFAE0;labelBackgroundColor=none;labelBorderColor=none;fillColor=#BC6C25;strokeColor=#DDA15E;" vertex="1" parent="1">
          <mxGeometry x="370" y="890" width="130" height="80" as="geometry" />
        </mxCell>
        <mxCell id="U49meoOqf-jPetuzmlHi-55" style="edgeStyle=orthogonalEdgeStyle;rounded=0;orthogonalLoop=1;jettySize=auto;html=1;entryX=0;entryY=0.429;entryDx=0;entryDy=0;entryPerimeter=0;fontColor=default;labelBackgroundColor=none;labelBorderColor=none;strokeColor=#DDA15E;" edge="1" parent="1" source="U49meoOqf-jPetuzmlHi-54" target="U49meoOqf-jPetuzmlHi-30">
          <mxGeometry relative="1" as="geometry" />
        </mxCell>
        <mxCell id="U49meoOqf-jPetuzmlHi-56" value="&lt;div style=&quot;forced-color-adjust: none; font-family: Helvetica; font-size: 12px; font-style: normal; font-variant-ligatures: normal; font-variant-caps: normal; font-weight: 400; letter-spacing: normal; orphans: 2; text-indent: 0px; text-transform: none; widows: 2; word-spacing: 0px; -webkit-text-stroke-width: 0px; white-space: normal; text-decoration-thickness: initial; text-decoration-style: initial; text-decoration-color: initial; text-align: center;&quot;&gt;&lt;span style=&quot;forced-color-adjust: none; font-size: 20px; text-wrap: nowrap;&quot;&gt;Notify this order&amp;nbsp;&lt;/span&gt;&lt;/div&gt;&lt;div style=&quot;forced-color-adjust: none; font-family: Helvetica; font-size: 12px; font-style: normal; font-variant-ligatures: normal; font-variant-caps: normal; font-weight: 400; letter-spacing: normal; orphans: 2; text-indent: 0px; text-transform: none; widows: 2; word-spacing: 0px; -webkit-text-stroke-width: 0px; white-space: normal; text-decoration-thickness: initial; text-decoration-style: initial; text-decoration-color: initial; text-align: center;&quot;&gt;&lt;span style=&quot;forced-color-adjust: none; font-size: 20px; text-wrap: nowrap;&quot;&gt;delivered information&lt;/span&gt;&lt;/div&gt;&lt;div style=&quot;forced-color-adjust: none; font-family: Helvetica; font-size: 12px; font-style: normal; font-variant-ligatures: normal; font-variant-caps: normal; font-weight: 400; letter-spacing: normal; orphans: 2; text-indent: 0px; text-transform: none; widows: 2; word-spacing: 0px; -webkit-text-stroke-width: 0px; white-space: normal; text-decoration-thickness: initial; text-decoration-style: initial; text-decoration-color: initial; text-align: center;&quot;&gt;&lt;span style=&quot;forced-color-adjust: none; font-size: 20px; text-wrap: nowrap;&quot;&gt;(time, name...)&lt;/span&gt;&lt;/div&gt;" style="text;whiteSpace=wrap;html=1;fontColor=#FEFAE0;labelBackgroundColor=none;labelBorderColor=none;" vertex="1" parent="1">
          <mxGeometry x="505" y="940" width="270" height="70" as="geometry" />
        </mxCell>
        <mxCell id="U49meoOqf-jPetuzmlHi-58" value="" style="endArrow=classic;html=1;rounded=0;entryX=1;entryY=0.25;entryDx=0;entryDy=0;fontColor=default;labelBackgroundColor=none;labelBorderColor=none;strokeColor=#DDA15E;" edge="1" parent="1" target="U49meoOqf-jPetuzmlHi-23">
          <mxGeometry width="50" height="50" relative="1" as="geometry">
            <mxPoint x="470" y="540" as="sourcePoint" />
            <mxPoint x="490" y="660" as="targetPoint" />
          </mxGeometry>
        </mxCell>
        <mxCell id="U49meoOqf-jPetuzmlHi-59" value="" style="endArrow=none;html=1;rounded=0;exitX=0.75;exitY=0;exitDx=0;exitDy=0;fontColor=default;labelBackgroundColor=none;labelBorderColor=none;strokeColor=#DDA15E;" edge="1" parent="1" source="U49meoOqf-jPetuzmlHi-34">
          <mxGeometry width="50" height="50" relative="1" as="geometry">
            <mxPoint x="440" y="710" as="sourcePoint" />
            <mxPoint x="470" y="540" as="targetPoint" />
          </mxGeometry>
        </mxCell>
        <mxCell id="U49meoOqf-jPetuzmlHi-60" value="&lt;div style=&quot;text-align: center;&quot;&gt;&lt;span style=&quot;font-size: 20px; text-wrap: nowrap;&quot;&gt;Notify RestaurantA&lt;br&gt;have one order&lt;/span&gt;&lt;/div&gt;" style="text;whiteSpace=wrap;html=1;fontColor=#FEFAE0;labelBackgroundColor=none;labelBorderColor=none;" vertex="1" parent="1">
          <mxGeometry x="230" y="480" width="260" height="70" as="geometry" />
        </mxCell>
      </root>
    </mxGraphModel>
  </diagram>
</mxfile>
